<svg xmlns="http://www.w3.org/2000/svg" aria-hidden="true" style="display:none">
  <symbol id="svc-web" viewBox="0 0 24 24" fill="none">
    <rect x="2.5" y="4" width="19" height="13" rx="2" stroke="currentColor" stroke-width="1"/>
    <path d="M9 21h6M12 17v4" stroke="currentColor" stroke-width="1" stroke-linecap="round"/>
    <path d="M8.5 10.5 6.5 13l2 2.5" stroke="#F97316" stroke-width="1" stroke-linecap="round" stroke-linejoin="round"/>
    <path d="M15.5 10.5l2 2.5-2 2.5" stroke="#F97316" stroke-width="1" stroke-linecap="round" stroke-linejoin="round"/>
    <path d="M13.5 10l-3 7" stroke="#FBBF24" stroke-width="1" stroke-linecap="round"/>
  </symbol>
  <symbol id="svc-mobile" viewBox="0 0 24 24" fill="none">
    <rect x="7" y="2.5" width="10" height="19" rx="2.5" stroke="currentColor" stroke-width="1"/>
    <rect x="9.5" y="4.5" width="5" height="1.5" rx="0.75" fill="#F97316"/>
    <rect x="8.5" y="7.5" width="7" height="10.5" rx="1.5" stroke="currentColor" stroke-width="0.85" opacity="0.45"/>
    <circle cx="12" cy="19.5" r="0.85" fill="currentColor"/>
  </symbol>
  <symbol id="svc-saas" viewBox="0 0 24 24" fill="none">
    <path d="M7.5 16.5h9a3.25 3.25 0 1 0-.85-6.38A4.25 4.25 0 0 0 7.5 16.5Z" stroke="currentColor" stroke-width="1" stroke-linejoin="round"/>
    <path d="M12 9V5.5M10 7.5l2-2 2 2" stroke="#F97316" stroke-width="1" stroke-linecap="round" stroke-linejoin="round"/>
  </symbol>
  <symbol id="svc-ai" viewBox="0 0 24 24" fill="none">
    <rect x="6" y="6" width="12" height="12" rx="2" stroke="currentColor" stroke-width="1"/>
    <path d="M9 3v3M12 3v3M15 3v3M9 18v3M12 18v3M15 18v3M3 9h3M3 12h3M3 15h3M18 9h3M18 12h3M18 15h3" stroke="currentColor" stroke-width="1" stroke-linecap="round"/>
    <path d="M9.2 12.2h1.3v1.3H9.2zM13.5 12.2h1.3v1.3h-1.3z" fill="#F97316"/>
    <path d="M10.8 10.5h2.4M10.5 13.8h3" stroke="currentColor" stroke-width="0.9" stroke-linecap="round"/>
  </symbol>
  <symbol id="svc-agents" viewBox="0 0 24 24" fill="none">
    <rect x="5" y="8" width="14" height="10" rx="3.5" stroke="currentColor" stroke-width="1"/>
    <path d="M9.5 12h.01M14.5 12h.01" stroke="currentColor" stroke-width="1.5" stroke-linecap="round"/>
    <path d="M9.5 15c.85.8 2 .95 2.5.95s1.65-.15 2.5-.95" stroke="currentColor" stroke-width="1" stroke-linecap="round"/>
    <path d="M12 8V6M8.5 6h7" stroke="currentColor" stroke-width="1" stroke-linecap="round"/>
    <circle cx="12" cy="6" r="1" fill="#F97316"/>
    <path d="M17.5 5.5a2.5 2.5 0 1 1 0 5" stroke="#FBBF24" stroke-width="1"/>
    <path d="M18.8 7.8l1.2 1.2" stroke="#F97316" stroke-width="1" stroke-linecap="round"/>
  </symbol>
  <symbol id="svc-mvp" viewBox="0 0 24 24" fill="none">
    <path d="M12 3.5c2 2.6 3.2 5.8 3.2 9.2a3.2 3.2 0 1 1-6.4 0c0-3.4 1.2-6.6 3.2-9.2Z" stroke="currentColor" stroke-width="1" stroke-linejoin="round"/>
    <circle cx="12" cy="10.8" r="1.4" fill="#F97316"/>
    <path d="M9.5 16.5 8 19.5M14.5 16.5 16 19.5M7 16.5h10" stroke="currentColor" stroke-width="1" stroke-linecap="round" stroke-linejoin="round"/>
    <path d="M12 3.5V2" stroke="#FBBF24" stroke-width="1" stroke-linecap="round"/>
  </symbol>
</svg>
